<?xml version="1.0"?>
<svg xmlns="http://www.w3.org/2000/svg" version="1" viewBox="0 0 24 24" enable-background="new 0 0 24 24">
    <path style="text-indent:0;text-align:start;line-height:normal;text-transform:none;block-progression:tb;-inkscape-font-specification:Bitstream Vera Sans" d="M 3.40625 2 L 2 3.40625 L 6.59375 8 L 3 8 L 3 10 L 9 10 L 10 10 L 10 9 L 10 3 L 8 3 L 8 6.59375 L 3.40625 2 z M 20.59375 2 L 16 6.59375 L 16 3 L 14 3 L 14 9 L 14 10 L 15 10 L 21 10 L 21 8 L 17.40625 8 L 22 3.40625 L 20.59375 2 z M 3 14 L 3 16 L 6.59375 16 L 2 20.59375 L 3.40625 22 L 8 17.40625 L 8 21 L 10 21 L 10 15 L 10 14 L 9 14 L 3 14 z M 14 14 L 14 15 L 14 21 L 16 21 L 16 17.40625 L 20.59375 22 L 22 20.59375 L 17.40625 16 L 21 16 L 21 14 L 15 14 L 14 14 z"/>
</svg>
