<?xml version="1.0"?>
<svg xmlns="http://www.w3.org/2000/svg" version="1" viewBox="0 0 24 24" enable-background="new 0 0 24 24">
    <path style="text-indent:0;text-align:start;line-height:normal;text-transform:none;block-progression:tb;-inkscape-font-specification:Bitstream Vera Sans" d="M 2 2 L 2 3 L 2 9 L 4 9 L 4 5.40625 L 8.59375 10 L 10 8.59375 L 5.40625 4 L 9 4 L 9 2 L 3 2 L 2 2 z M 15 2 L 15 4 L 18.59375 4 L 14 8.59375 L 15.40625 10 L 20 5.40625 L 20 9 L 22 9 L 22 3 L 22 2 L 21 2 L 15 2 z M 8.59375 14 L 4 18.59375 L 4 15 L 2 15 L 2 21 L 2 22 L 3 22 L 9 22 L 9 20 L 5.40625 20 L 10 15.40625 L 8.59375 14 z M 15.40625 14 L 14 15.40625 L 18.59375 20 L 15 20 L 15 22 L 21 22 L 22 22 L 22 21 L 22 15 L 20 15 L 20 18.59375 L 15.40625 14 z"/>
</svg>
